# xmcd
#
# Track frame offsets: 
#        150
#        12786
#        34348
#        46678
#        70419
#        86295
#        103617
#        121997
#        137366
#        154288
#
# Disc length: 2353 seconds
#
# Revision: 0
# Processed by: cddbd v1.5.2PL0 Copyright (c) Steve Scherf et al.
# Submitted via: ExactAudioCopy v1.0b1
#
DISCID=76092f0a
DTITLE=Papa John Creach - Papa John Creach
DYEAR=1971
DGENRE=Blues
TTITLE0=The Janitor Drives a Cadillac
TTITLE1=St. Louis Blues
TTITLE2=Papa John's Down Home Blues
TTITLE3=Pluck a Little Funk
TTITLE4=Over the Rainbow
TTITLE5=String Jet Rock
TTITLE6=Danny Boy
TTITLE7=Human Spring
TTITLE8=Soul Fever
TTITLE9=Every Time I Hear Her Name
EXTD=
EXTT0=
EXTT1=
EXTT2=
EXTT3=
EXTT4=
EXTT5=
EXTT6=
EXTT7=
EXTT8=
EXTT9=
PLAYORDER=
